<?xml version="1.0" encoding="UTF-8"?>
<svg id="Layer_1" xmlns="http://www.w3.org/2000/svg" version="1.1" viewBox="0 0 876 200">
  <!-- Generator: Adobe Illustrator 29.5.0, SVG Export Plug-In . SVG Version: 2.1.0 Build 137)  -->
  <defs>
    <style>
      .st0 {
        fill: #00c3a5;
      }
    </style>
  </defs>
  <path class="st0" d="M68,200l-44.08-28.6c-.42-2.61,10.04-18.47,12.26-21.72,36.42-53.44,95.76-90.13,160.38-97.35l13.44,39.66c-59.95,11.32-114.59,52.41-140,108.01h-2Z"/>
  <path class="st0" d="M126,0l4.92,61.91c-31.76,9.88-61.16,25.99-85.4,48.81L0,92v-3l12.01-37,66.98,16L84,0h42Z"/>
  <path class="st0" d="M876,80v76c-2.85-.57-20.28.77-21,0-.31-.33-.1-7.39-1.01-9-11.52,11.28-33.33,15.21-47.31,6.82-16.23-9.74-18.82-35.57-7.19-49.83,12.39-15.2,36.05-13.9,53.51-10.98.76-12.73-2.27-18.9-15.46-20.04-10.81-.93-21.77.97-32.54,1.04v-20c12.52-.83,27.01-2.03,39.54-1.04,10.48.83,19.44,4.75,25.9,13.1l5.56,13.94ZM853,130.5v-20c-13.82-6.05-40.9-.88-35.53,19.53,3.88,14.75,27.36,8.4,35.53.47Z"/>
  <path class="st0" d="M151,200h-2l-32.73-38.48c.66-7.64,29.14-39.66,34.14-38.45,3.38,7.83,31.68,47.79,31.59,52.46-.02,1.11-.61,1.88-1.46,2.5l-29.53,21.97Z"/>
  <path class="st0" d="M446,56c1.14.72,1.08,10.02,1.01,11.99l13.29-11.2c13.8-7.41,38.75-5.37,44.72,11.2,1.46,1.04,7.22-6,9.07-7.41,14.98-11.4,42.62-11.7,51.8,7.03,1.02,2.09,4.12,11.09,4.12,12.88v75.5h-23v-66.5c0-2.89-2.98-10.51-5.48-12.52-9.95-7.99-23.29.22-28.23,9.81-.66,1.28-3.29,7.87-3.29,8.71v60.5h-24v-69.5c0-2.36-3.35-8.9-5.63-10.37-8.79-5.64-20.54.18-25.8,7.93-2.01,2.96-5.56,13.15-5.56,16.44v55.5h-23V56c3.25.7,18.52-.93,20,0Z"/>
  <path class="st0" d="M778,16v140h-18.5c-1.44,0-2.63-7.38-2.51-9l-13.64,8.85c-43.57,15.18-61.78-24.81-56.08-62.08,5.34-34.93,34.81-51.12,66.73-34.77V19l24-3ZM729.74,74.24c-19.93,3.42-21.55,33.01-16.8,48.32,6.25,20.14,26.78,20.06,40.89,7.78l.21-47.88c-1.03-7.67-18.11-9.28-24.31-8.21Z"/>
  <path class="st0" d="M609,117c3.33,29.99,35.78,21.62,57,20v18.5c-4.51,2.09-12.22,3.14-17.51,3.49-32.74,2.15-59.24-4.64-63.48-41.5-4.4-38.27,12.81-69.6,55.23-64.23,19.3,2.44,32.76,21.28,32.76,40.24v22c0,.11-1.39,1.5-1.5,1.5h-62.5ZM609,100h40c4.13-38.14-42.45-36.49-40,0Z"/>
  <path class="st0" d="M408,156h-22c-.45,0,.33-7.88,0-8.99-.57-.67-7.89,5.35-9.33,6.16-20.08,11.27-48.95,4.48-52.41-20.93-5.17-37.95,29.88-45.62,59.74-39.24,4.36-29.13-29.48-18.25-47-19v-20c12.33-.85,27.17-2.12,39.48-.98,15.37,1.41,26.92,9.47,30.07,24.93.35,1.73,1.45,8.3,1.45,9.55v68.5ZM384,130.5v-20c-13.54-6.48-41.85-.05-35.05,20.05,4.9,14.47,26.77,7.69,35.05-.05Z"/>
  <path class="st0" d="M310,53c-1,28.25,1.32,57.39.04,85.54-.57,12.47-1.5,28.39-9.63,38.37-8.54,10.48-23.96,11.38-36.36,9.05.31-2.77,1.09-18.14,1.99-18.92.6-.52,8.65,2.66,14.48-2.01,2.84-2.28,5.48-10.16,5.48-13.52V53h24Z"/>
  <path class="st0" d="M293.71,16.21c22.62-5.17,22.76,28.8,1.86,25.73-13.88-2.04-13.32-23.11-1.86-25.73Z"/>
</svg>